<svg width="195" height="172" viewBox="0 0 195 172" fill="none" xmlns="http://www.w3.org/2000/svg">
<g clip-path="url(#clip0_6_6380)">
<g clip-path="url(#clip1_6_6380)">
<g clip-path="url(#clip2_6_6380)">
<path d="M182.748 118.418C178.937 121.277 174.312 122.724 169.706 123.896H36.055C28.9175 121.133 22.1112 117.474 15.8683 112.979C8.68903 107.802 1.66961 100.105 2.67842 91.1859C3.56912 83.3479 10.284 77.7635 16.3366 72.8491C22.3891 67.9349 28.8147 61.7299 28.7196 53.8426C28.6395 47.3408 24.1173 41.9127 19.9757 36.9678C15.8455 32.0154 11.6125 26.1875 12.2862 19.7238C12.7887 14.8741 16.1081 10.6791 20.1622 8.09439C24.2125 5.50967 28.9593 4.3069 33.6568 3.38182C69.2641 -3.61865 116.368 3.77772 146.969 23.618C153.452 27.8242 159.927 32.967 162.641 40.3102C166.923 51.8936 160.84 63.9833 155.694 74.0635C154 77.3791 153.547 81.6043 155.465 84.7868C157.19 87.6302 160.456 89.1188 163.65 89.9182C170.239 91.555 177.198 90.9306 183.829 92.366C190.464 93.7971 188.362 98.2851 189.23 105.145C189.874 110.287 186.847 115.35 182.748 118.418Z" fill="url(#paint0_linear_6_6380)"/>
<path d="M193.243 155.43C188.766 172.751 36.4433 179.279 29.2146 158.734C26.6755 151.513 39.0356 145.518 39.1727 142.488C39.3135 139.458 -1.31477 134.665 0.0327967 129.271C3.70245 114.585 163.399 123.123 163.368 123.489C163.368 123.489 188.126 124.315 188.541 131.475C188.956 138.632 175.953 140.284 180.658 144.414C185.359 148.544 195.325 147.383 193.243 155.43Z" fill="url(#paint1_linear_6_6380)"/>
<path d="M192.995 83.7566C192.032 85.9529 189.194 88.2037 185.211 88.9699C182.266 89.5386 179.149 89.2014 176.793 88.391C174.432 87.5806 172.736 86.3343 171.312 85.0301C160.071 74.7273 166.431 61.432 173.34 57.3222C176.514 55.4357 181.322 54.4209 184.978 55.6434C188.06 56.6751 187.999 58.3744 188.426 60.2302C189.737 65.9305 191.387 71.5898 192.861 77.2663C193.415 79.3809 193.961 81.5602 192.995 83.7566Z" fill="url(#paint2_linear_6_6380)"/>
<path d="M55.8111 123.896H51.7019C46.4714 123.896 42.2285 119.653 42.2285 114.422V13.3053C42.2285 8.07477 46.4714 3.83191 51.7019 3.83191H55.8111C50.5805 3.83191 46.3376 8.07477 46.3376 13.3053V114.422C46.3376 119.653 50.5805 123.896 55.8111 123.896Z" fill="#A1BCE7"/>
<path d="M118.771 13.3064V114.421C118.771 119.652 114.533 123.895 109.298 123.895H55.03C49.7995 123.895 45.5564 119.652 45.5564 114.421V13.3064C45.5564 8.07583 49.7995 3.83276 55.03 3.83276H109.298C114.533 3.83276 118.771 8.07583 118.771 13.3064Z" fill="#B9D5FE"/>
<path d="M114.587 13.3063V114.421C114.587 117.338 112.214 119.71 109.298 119.71H55.0299C52.1133 119.71 49.7407 117.338 49.7407 114.421V13.3063C49.7407 10.3896 52.1133 8.01709 55.0299 8.01709H66.3319C67.0058 10.2515 69.0812 11.8793 71.5375 11.8793H92.7902C95.2463 11.8793 97.3218 10.2515 97.9914 8.01709H109.298C112.214 8.01709 114.587 10.3896 114.587 13.3063Z" fill="white"/>
<path d="M81.7723 24.743H54.0957V49.2302H81.7723V24.743Z" fill="url(#paint3_linear_6_6380)"/>
<path d="M80.4626 26.053H55.4058V47.9204H80.4626V26.053Z" fill="url(#paint4_linear_6_6380)"/>
<path d="M80.466 26.053H75.6099V47.9204H80.466V26.053Z" fill="url(#paint5_linear_6_6380)"/>
<path d="M57.0073 37.0595L60.2468 39.5324L61.2641 38.5772V47.9205H71.4053V38.5772L72.4226 39.5324L75.662 37.0595L73.0956 32.6144C72.9233 32.3172 72.5947 32.1292 72.2661 32.1292H68.5569C68.5569 33.3656 67.5711 34.3513 66.3347 34.3513C65.0983 34.3513 64.1125 33.3656 64.1125 32.1292H60.4033C60.0747 32.1292 59.7461 32.3172 59.5738 32.6144L57.0073 37.0595Z" fill="#4E97FD"/>
<path d="M80.4647 26.0537H79.124V47.9211H80.4647V26.0537Z" fill="#7D879C"/>
<path opacity="0.2" d="M71.9651 26.053L80.4626 40.9489V35.6443L74.9909 26.053H71.9651Z" fill="white"/>
<path opacity="0.2" d="M55.4058 26.053V27.9031L66.8274 47.9204H68.3401L55.8642 26.053H55.4058Z" fill="white"/>
<path opacity="0.2" d="M55.4058 37.4385V44.3742L57.4294 47.9205H61.385L55.4058 37.4385Z" fill="white"/>
<path opacity="0.2" d="M58.0518 26.053L70.5277 47.9204H78.6158L66.1399 26.053H58.0518Z" fill="white"/>
<path d="M111.138 24.743H83.4617V49.2302H111.138V24.743Z" fill="url(#paint6_linear_6_6380)"/>
<path d="M109.828 26.053H84.7715V47.9204H109.828V26.053Z" fill="url(#paint7_linear_6_6380)"/>
<path d="M88.5781 34.4204V47.4865C88.5781 47.7255 88.7734 47.9207 89.0123 47.9207H102.485C102.724 47.9207 102.919 47.7255 102.919 47.4865V34.4204C102.919 34.1816 102.724 33.9863 102.485 33.9863H89.0123C88.7734 33.9863 88.5781 34.1816 88.5781 34.4204Z" fill="#FF4129"/>
<path d="M98.2348 33.9866H97.5986V47.9204H98.2348V33.9866Z" fill="#FFCD4E"/>
<path d="M102.919 37.1135H88.5796V37.7496H102.919V37.1135Z" fill="#FFCD4E"/>
<path d="M95.208 33.3341C94.2231 32.3488 93.9448 31.0827 94.5752 30.4515C94.8982 30.1282 95.3903 30.0317 95.966 30.1806C96.4795 30.314 97.0097 30.6346 97.4578 31.0833C98.4054 32.0301 98.19 33.7125 98.1809 33.7837L98.1478 34.0237L97.9076 34.0562C97.8852 34.0593 97.6947 34.0838 97.4156 34.0838C96.8283 34.0838 95.8492 33.9757 95.208 33.3341ZM97.0088 31.5331C96.6435 31.1686 96.2053 30.9 95.8061 30.7963C95.4665 30.7079 95.1815 30.7456 95.0258 30.9013C94.706 31.221 94.8866 32.114 95.657 32.8843C96.1946 33.4217 97.124 33.4602 97.568 33.4441C97.5845 32.9974 97.5456 32.0703 97.0088 31.5331Z" fill="#FFCD4E"/>
<path d="M97.8092 34.0562L97.569 34.0237L97.5359 33.7835C97.5268 33.7123 97.3122 32.0301 98.259 31.0833C98.7072 30.6346 99.2373 30.314 99.7509 30.1807C100.951 29.8693 101.718 30.6688 101.412 31.8419C101.279 32.3553 100.958 32.8852 100.51 33.3341C99.8687 33.9757 98.8886 34.0838 98.3013 34.0838C98.0221 34.0838 97.8316 34.0594 97.8092 34.0562ZM99.9108 30.7963C99.5115 30.9001 99.0733 31.1687 98.7088 31.5331C98.1712 32.0705 98.1323 32.9983 98.1489 33.4447C98.5879 33.4625 99.5198 33.4244 100.059 32.8844C100.423 32.5197 100.693 32.0815 100.796 31.6818C100.885 31.3412 100.847 31.0566 100.691 30.9013C100.501 30.7118 100.169 30.7294 99.9108 30.7963Z" fill="#FFCD4E"/>
<path d="M109.832 26.053H104.976V47.9204H109.832V26.053Z" fill="url(#paint8_linear_6_6380)"/>
<path d="M109.831 26.0537H108.49V47.9211H109.831V26.0537Z" fill="#7D879C"/>
<g opacity="0.2">
<path opacity="0.2" d="M101.331 26.053L109.828 40.9489V35.6443L104.357 26.053H101.331Z" fill="white"/>
</g>
<g opacity="0.2">
<path opacity="0.2" d="M84.7715 26.053V27.9031L96.1932 47.9204H97.7058L85.23 26.053H84.7715Z" fill="white"/>
</g>
<g opacity="0.2">
<path opacity="0.2" d="M84.7715 37.4385V44.3742L86.7951 47.9205H90.7507L84.7715 37.4385Z" fill="white"/>
</g>
<g opacity="0.2">
<path opacity="0.2" d="M87.4172 26.053L99.8935 47.9204H107.982L95.5053 26.053H87.4172Z" fill="white"/>
</g>
<path d="M81.7723 52.7526H54.0957V77.2399H81.7723V52.7526Z" fill="url(#paint9_linear_6_6380)"/>
<path d="M80.4626 54.0625H55.4058V75.9299H80.4626V54.0625Z" fill="url(#paint10_linear_6_6380)"/>
<path d="M66.3349 71.4932C63.3028 71.4932 60.8362 69.0266 60.8362 65.9946C60.8362 62.9627 63.3028 60.4961 66.3349 60.4961C69.3667 60.4961 71.8333 62.9627 71.8333 65.9946C71.8333 69.0266 69.3667 71.4932 66.3349 71.4932ZM66.3349 61.8611C64.0556 61.8611 62.2013 63.7154 62.2013 65.9946C62.2013 68.2739 64.0556 70.1281 66.3349 70.1281C68.614 70.1281 70.4683 68.2739 70.4683 65.9946C70.4683 63.7154 68.614 61.8611 66.3349 61.8611Z" fill="#2B3445"/>
<path d="M73.7458 74.9577C73.638 75.5057 73.1553 75.9159 72.5737 75.9159L60.1011 75.93C59.4434 75.93 58.906 75.3961 58.906 74.7349C58.9042 72.8503 58.899 67.245 58.8989 67.1966C58.8989 67.1577 58.9007 67.1205 58.9042 67.0816C58.9148 66.9579 58.9449 66.8412 58.9908 66.7316C59.1712 66.3002 59.5972 65.9979 60.094 65.9979L72.5648 65.9873C73.226 65.9855 73.7635 66.523 73.7635 67.1842C73.7644 67.4247 73.7951 74.7218 73.7458 74.9577Z" fill="#FFCD4E"/>
<path d="M80.466 54.0625H75.6099V75.9299H80.466V54.0625Z" fill="url(#paint11_linear_6_6380)"/>
<path d="M80.4647 54.0632H79.124V75.9306H80.4647V54.0632Z" fill="#7D879C"/>
<g opacity="0.2">
<path opacity="0.2" d="M71.9651 54.0625L80.4626 68.9584V63.6537L74.9909 54.0625H71.9651Z" fill="white"/>
</g>
<g opacity="0.2">
<path opacity="0.2" d="M55.4058 54.0625V55.9126L66.8274 75.9299H68.3401L55.8642 54.0625H55.4058Z" fill="white"/>
</g>
<g opacity="0.2">
<path opacity="0.2" d="M55.4058 65.448V72.3837L57.4294 75.9299H61.385L55.4058 65.448Z" fill="white"/>
</g>
<g opacity="0.2">
<path opacity="0.2" d="M58.0518 54.0625L70.5277 75.9299H78.6158L66.1399 54.0625H58.0518Z" fill="white"/>
</g>
<path d="M111.138 52.7526H83.4617V77.2399H111.138V52.7526Z" fill="url(#paint12_linear_6_6380)"/>
<path d="M109.828 54.0625H84.7717V75.9299H109.828V54.0625Z" fill="url(#paint13_linear_6_6380)"/>
<path d="M102.988 65.5364L101.157 67.367L103.368 69.5783C103.619 69.8289 103.619 70.2333 103.368 70.4838L102.059 71.7936C101.808 72.0441 101.404 72.0441 101.153 71.7935L98.9419 69.5823L97.1113 71.4129C96.7772 71.7469 96.2081 71.5733 96.1158 71.1119L94.6565 63.7761C94.5752 63.3652 94.94 63.0004 95.351 63.0817L102.687 64.541C103.148 64.6332 103.322 65.2024 102.988 65.5364Z" fill="white"/>
<path d="M92.9957 61.0016L94.4285 63.0936L92.3364 61.6609C92.1203 61.5128 92.0651 61.2177 92.2131 61.0015C92.4002 60.7284 92.8051 60.7251 92.9957 61.0016ZM91.3177 63.4253L93.6045 64.5206L91.0764 64.3259C90.8152 64.3058 90.6198 64.0777 90.64 63.8166C90.6654 63.4865 91.0144 63.2811 91.3177 63.4253ZM91.0764 66.3633L93.6046 66.1686L91.3177 67.2639C91.0815 67.377 90.7983 67.2773 90.6851 67.0411C90.5422 66.7428 90.7409 66.3904 91.0764 66.3633ZM98.5987 59.9829L97.5034 62.2698L97.6981 59.7416C97.7182 59.4804 97.9463 59.285 98.2074 59.3052C98.5383 59.3306 98.7424 59.6801 98.5987 59.9829ZM95.6608 59.7416L95.8555 62.2697L94.7602 59.9829C94.647 59.7467 94.7468 59.4634 94.9829 59.3502C95.2812 59.2075 95.6334 59.4061 95.6608 59.7416Z" fill="#2B3445"/>
<path d="M109.832 54.0625H104.976V75.9299H109.832V54.0625Z" fill="url(#paint14_linear_6_6380)"/>
<path d="M109.831 54.0632H108.49V75.9306H109.831V54.0632Z" fill="#7D879C"/>
<g opacity="0.2">
<path opacity="0.2" d="M101.331 54.0625L109.828 68.9584V63.6537L104.357 54.0625H101.331Z" fill="white"/>
</g>
<g opacity="0.2">
<path opacity="0.2" d="M84.7717 54.0625V55.9126L96.1933 75.9299H97.706L85.2301 54.0625H84.7717Z" fill="white"/>
</g>
<g opacity="0.2">
<path opacity="0.2" d="M84.7717 65.448V72.3837L86.7953 75.9299H90.7509L84.7717 65.448Z" fill="white"/>
</g>
<g opacity="0.2">
<path opacity="0.2" d="M87.4172 54.0625L99.8935 75.9299H107.982L95.5053 54.0625H87.4172Z" fill="white"/>
</g>
<path d="M105.075 87.0436V97.2604C105.075 98.2963 104.232 99.1397 103.196 99.1397H61.1366C60.0961 99.1397 59.2527 98.2963 59.2527 97.2604V87.0436C59.2527 86.0031 60.0961 85.1597 61.1366 85.1597H103.196C104.232 85.1597 105.075 86.0031 105.075 87.0436Z" fill="#94C9FE"/>
<path d="M64.7805 90.5031C64.7456 90.4245 64.6955 90.3594 64.6319 90.3092C64.5621 90.2537 64.477 90.2254 64.3794 90.2254H64.3284C64.2308 90.2254 64.1458 90.2535 64.0755 90.3092C64.0115 90.36 63.9614 90.4252 63.926 90.5049L62.6225 93.583C62.5993 93.6383 62.5881 93.6862 62.5881 93.7292C62.5881 93.8234 62.6212 93.9074 62.6839 93.9723C62.7935 94.0862 62.9878 94.1075 63.1252 94.0173C63.1825 93.9801 63.2264 93.9289 63.2582 93.8604L63.5612 93.1332H65.1462L65.451 93.8637C65.4801 93.9275 65.524 93.9792 65.5822 94.0173C65.6404 94.0549 65.7053 94.0739 65.7751 94.0739C65.874 94.0739 65.96 94.0388 66.0235 93.9723C66.0866 93.9072 66.1198 93.8229 66.1198 93.7292C66.1198 93.6862 66.1086 93.6384 66.0853 93.5824L64.7805 90.5031ZM64.8723 92.4799H63.8356L64.3539 91.2318L64.8723 92.4799ZM69.4478 90.5271C69.1595 90.3438 68.8059 90.251 68.3972 90.251H67.37C67.2746 90.251 67.1896 90.287 67.1233 90.355C67.0593 90.422 67.0253 90.507 67.0253 90.6008V93.7037C67.0253 93.7984 67.0598 93.8829 67.1251 93.9483C67.1905 94.0136 67.2751 94.0483 67.37 94.0483H68.3972C68.8064 94.0483 69.16 93.9554 69.4478 93.7724C69.7352 93.5897 69.9545 93.35 70.1 93.0597C70.2437 92.7717 70.3166 92.4655 70.3166 92.1497C70.3166 91.8339 70.2437 91.5278 70.1 91.2395C69.9545 90.9495 69.7352 90.7098 69.4478 90.5271ZM69.6273 92.1497C69.6273 92.3937 69.5736 92.6111 69.4684 92.796C69.3641 92.9786 69.2141 93.1235 69.0226 93.2272C68.8292 93.3317 68.6 93.3848 68.3413 93.3848H67.7196V90.9148H68.3413C68.6 90.9148 68.8292 90.9679 69.0226 91.0722C69.2141 91.1758 69.3641 91.3208 69.4684 91.5036C69.5736 91.6883 69.6273 91.9056 69.6273 92.1497ZM73.6702 90.5271C73.3819 90.3438 73.0283 90.251 72.6196 90.251H71.5923C71.497 90.251 71.4119 90.287 71.3457 90.355C71.2817 90.422 71.2477 90.507 71.2477 90.6008V93.7037C71.2477 93.7984 71.2821 93.8829 71.3475 93.9483C71.4128 94.0136 71.4974 94.0483 71.5923 94.0483H72.6196C73.0287 94.0483 73.3824 93.9554 73.6702 93.7724C73.9575 93.5897 74.1769 93.35 74.3223 93.0597C74.466 92.7717 74.539 92.4655 74.539 92.1497C74.539 91.8339 74.466 91.5278 74.3223 91.2395C74.1769 90.9495 73.9575 90.7098 73.6702 90.5271ZM73.8497 92.1497C73.8497 92.3937 73.7959 92.6111 73.6908 92.796C73.5865 92.9786 73.4365 93.1235 73.2449 93.2272C73.0516 93.3317 72.8224 93.3848 72.5637 93.3848H71.9419V90.9148H72.5637C72.8224 90.9148 73.0516 90.9679 73.2449 91.0722C73.4365 91.1758 73.5865 91.3208 73.6908 91.5036C73.7959 91.6883 73.8497 91.9056 73.8497 92.1497ZM79.6279 90.251H77.0823C76.9901 90.251 76.9082 90.2854 76.8469 90.3499C76.7856 90.4134 76.7529 90.495 76.7529 90.5854C76.7529 90.677 76.786 90.7582 76.8478 90.8195C76.91 90.882 76.991 90.9148 77.0823 90.9148H78.0107V93.7292C78.0107 93.8243 78.0452 93.909 78.1105 93.9741C78.1763 94.0395 78.2609 94.0739 78.3554 94.0739C78.4489 94.0739 78.534 94.0398 78.6007 93.9756C78.6687 93.9102 78.705 93.8252 78.705 93.7292V90.9148H79.6279C79.7184 90.9148 79.8003 90.8823 79.8634 90.8214C79.9283 90.7592 79.9628 90.6776 79.9628 90.5854C79.9628 90.4943 79.9292 90.4123 79.8652 90.3488C79.8016 90.2847 79.7197 90.251 79.6279 90.251ZM83.2465 90.4506C82.9627 90.2843 82.6279 90.2 82.251 90.2C81.8745 90.2 81.5384 90.2843 81.2523 90.4506C80.9654 90.6178 80.7412 90.8514 80.5854 91.1451C80.431 91.4367 80.349 91.774 80.3419 92.152C80.349 92.5257 80.431 92.8629 80.5854 93.1543C80.7412 93.4482 80.9659 93.6817 81.2523 93.8487C81.5384 94.0148 81.8745 94.0993 82.251 94.0993C82.6279 94.0993 82.9627 94.015 83.2465 93.8487C83.5312 93.6822 83.7554 93.4478 83.9139 93.152C84.0701 92.8594 84.1525 92.5232 84.1596 92.1476C84.1525 91.7768 84.0701 91.44 83.9139 91.1473C83.7554 90.8519 83.5312 90.6173 83.2465 90.4506ZM82.251 93.4357C81.9976 93.4357 81.7778 93.3797 81.5979 93.2689C81.4148 93.1563 81.2792 93.0074 81.1825 92.814C81.0854 92.6197 81.0361 92.3964 81.0361 92.1497C81.0361 91.9031 81.0854 91.6796 81.1825 91.4854C81.2779 91.2944 81.4175 91.1415 81.5979 91.0305C81.7778 90.9197 81.9976 90.8635 82.251 90.8635C82.5007 90.8635 82.7196 90.9197 82.9014 91.0307C83.0831 91.1417 83.2236 91.2949 83.319 91.4854C83.4161 91.6796 83.4654 91.9031 83.4654 92.1497C83.4654 92.3964 83.4161 92.6197 83.319 92.814C83.2236 93.0045 83.0835 93.1573 82.9018 93.2686C82.7196 93.3796 82.5007 93.4357 82.251 93.4357ZM87.8475 91.0397C88.0346 90.9295 88.2674 90.8738 88.5382 90.8738C88.7141 90.8738 88.8708 90.8931 89.0028 90.9307C89.1376 90.9694 89.2786 91.0268 89.4227 91.102C89.5413 91.1617 89.7038 91.1372 89.7973 91.0399C89.8542 90.9797 89.8846 90.9057 89.8846 90.8258C89.8846 90.6942 89.8251 90.592 89.7141 90.5316C89.527 90.4257 89.3358 90.3432 89.1461 90.2863C88.9536 90.229 88.7334 90.2 88.4921 90.2C88.134 90.2 87.8068 90.2794 87.5194 90.4363C87.2303 90.5947 87.0002 90.8247 86.8359 91.1199C86.6716 91.4137 86.5884 91.7601 86.5884 92.1497C86.5884 92.5396 86.6716 92.8862 86.8355 93.1794C87.0002 93.4748 87.2303 93.7046 87.5194 93.8631C87.8068 94.02 88.134 94.0993 88.4921 94.0993C88.7334 94.0993 88.9536 94.0703 89.1461 94.013C89.335 93.9565 89.5261 93.874 89.7123 93.7685C89.8233 93.7083 89.8846 93.6036 89.8846 93.4736C89.8846 93.3892 89.8537 93.3138 89.7951 93.2547C89.7029 93.1623 89.5449 93.1365 89.4205 93.1983C89.2786 93.2726 89.1376 93.33 89.0028 93.3687C88.8708 93.4063 88.7141 93.4256 88.5382 93.4256C88.2674 93.4256 88.0346 93.3698 87.8471 93.2597C87.6618 93.1512 87.5203 93.0005 87.4268 92.8119C87.331 92.6194 87.2826 92.3966 87.2826 92.1497C87.2826 91.9027 87.331 91.6801 87.4268 91.4874C87.5203 91.2989 87.6618 91.1482 87.8475 91.0397ZM92.6916 90.5031C92.6567 90.4245 92.6066 90.3594 92.543 90.3092C92.4732 90.2537 92.3881 90.2254 92.2906 90.2254H92.2395C92.142 90.2254 92.0569 90.2535 91.9866 90.3092C91.9226 90.36 91.8725 90.4252 91.8371 90.5049L90.5337 93.583C90.5104 93.6383 90.4992 93.6862 90.4992 93.7292C90.4992 93.8234 90.5323 93.9074 90.595 93.9723C90.7051 94.0862 90.8985 94.1075 91.0363 94.0173C91.0936 93.9801 91.1375 93.9289 91.1693 93.8604L91.4723 93.1332H93.0573L93.3622 93.8637C93.3913 93.9275 93.4351 93.9792 93.4933 94.0173C93.5515 94.0549 93.6164 94.0739 93.6862 94.0739C93.7852 94.0739 93.8711 94.0388 93.9347 93.9723C93.9978 93.9072 94.0309 93.8229 94.0309 93.7292C94.0309 93.6862 94.0197 93.6384 93.9964 93.5824L92.6916 90.5031ZM92.7834 92.4799H91.7467L92.2651 91.2318L92.7834 92.4799ZM97.786 92.0274C97.9126 91.8399 97.9771 91.6299 97.9771 91.4034C97.9771 91.0588 97.8459 90.7762 97.5877 90.5634C97.3361 90.3561 96.9606 90.251 96.4722 90.251H95.2811C95.1857 90.251 95.1007 90.287 95.0345 90.355C94.9705 90.422 94.9364 90.507 94.9364 90.6008V93.7292C94.9364 93.8243 94.9709 93.909 95.0362 93.9741C95.1674 94.1041 95.3926 94.1047 95.5264 93.9756C95.5944 93.9102 95.6307 93.8252 95.6307 93.7292V92.6579H96.5743C96.777 92.6579 96.927 92.7044 97.0201 92.796C97.1208 92.8953 97.1826 93.0034 97.2085 93.1269C97.2372 93.2627 97.252 93.4139 97.252 93.5759V93.7292C97.252 93.8267 97.2855 93.9122 97.3495 93.9765C97.4131 94.0403 97.5004 94.0739 97.602 94.0739C97.6964 94.0739 97.781 94.0392 97.8464 93.9741C97.9117 93.909 97.9462 93.8243 97.9462 93.7292V93.4942C97.9462 93.2502 97.8983 92.9984 97.8039 92.7458C97.734 92.5604 97.623 92.4197 97.4722 92.3245C97.5998 92.2467 97.7049 92.1474 97.786 92.0274ZM97.2828 91.4392C97.2828 91.6113 97.2148 91.7406 97.0751 91.8346C96.923 91.9371 96.7094 91.9892 96.4413 91.9892H95.6307V90.9197H96.4158C96.747 90.9197 96.9798 90.9672 97.1069 91.061C97.2251 91.1483 97.2828 91.272 97.2828 91.4392ZM101.642 90.3488C101.579 90.2847 101.497 90.251 101.405 90.251H98.8593C98.7671 90.251 98.6852 90.2854 98.6239 90.3499C98.5626 90.4134 98.5299 90.495 98.5299 90.5854C98.5299 90.677 98.563 90.7582 98.6248 90.8195C98.687 90.882 98.768 90.9148 98.8593 90.9148H99.7877V93.7292C99.7877 93.8243 99.8222 93.909 99.8875 93.9741C99.9533 94.0395 100.038 94.0739 100.132 94.0739C100.226 94.0739 100.311 94.0398 100.378 93.9756C100.446 93.9102 100.482 93.8252 100.482 93.7292V90.9148H101.405C101.495 90.9148 101.577 90.8823 101.64 90.8214C101.705 90.7592 101.74 90.6776 101.74 90.5854C101.74 90.4943 101.706 90.4123 101.642 90.3488Z" fill="white"/>
<path d="M127.125 90.9856L126.906 94.1308L125.16 115.87L144.243 118.364L146.264 93.4875L127.125 90.9856Z" fill="#FFCD4E"/>
<path d="M139.044 94.563C138.986 95.0076 139.3 95.4166 139.745 95.4747C140.189 95.5328 140.598 95.2184 140.656 94.7738C140.714 94.3292 140.4 93.9202 139.955 93.8621C139.511 93.804 139.102 94.1184 139.044 94.563ZM131.82 93.6187C131.762 94.0634 132.076 94.4723 132.521 94.5305C132.966 94.5886 133.375 94.2741 133.433 93.8295C133.491 93.385 133.176 92.976 132.732 92.9179C132.287 92.8598 131.878 93.1742 131.82 93.6187Z" fill="white"/>
<path d="M125.161 115.87L121.411 115.38L127.124 90.984L125.161 115.87Z" fill="#EAC250"/>
<path d="M132.588 94.0218C132.724 94.0395 132.848 93.9436 132.866 93.8075L133.218 91.116C133.461 89.2602 135.168 87.9479 137.023 88.1905C138.879 88.433 140.191 90.14 139.949 91.9958L139.597 94.6874C139.579 94.8235 139.675 94.9482 139.811 94.966C139.947 94.9838 140.072 94.8879 140.09 94.7518L140.442 92.0602C140.72 89.9328 139.215 87.9757 137.088 87.6976C134.96 87.4196 133.003 88.9241 132.725 91.0515L132.373 93.7431C132.356 93.8792 132.452 94.004 132.588 94.0218Z" fill="#2B3445"/>
<path d="M166.524 130.673L166.618 135.25C166.622 135.272 166.64 135.29 166.665 135.29L171.615 135.236L171.857 132.885L172.071 130.832L166.524 130.673Z" fill="#FCE9EC"/>
<path d="M160.71 139.886C160.71 139.918 160.714 139.954 160.714 139.991C160.721 140.081 160.793 140.153 160.884 140.153C162.03 140.164 168.245 140.269 171.406 140.164C172.176 140.139 172.736 139.43 172.591 138.674L171.735 135.091L166.625 134.867C166.615 134.867 166.607 134.867 166.6 134.874L162.464 137.658C161.43 138.179 160.71 138.848 160.71 139.886Z" fill="#2B3445"/>
<path d="M186.125 129.243L187.815 133.498C187.826 133.517 187.849 133.528 187.873 133.519L192.491 131.736L191.895 129.449L191.376 127.451L186.125 129.243Z" fill="#FCE9EC"/>
<path d="M183.903 139.909C183.915 139.939 183.931 139.972 183.944 140.006C183.982 140.088 184.075 140.13 184.16 140.099C185.237 139.708 191.096 137.63 194.02 136.426C194.732 136.132 195.009 135.272 194.609 134.615L192.552 131.558L187.688 133.137C187.678 133.141 187.671 133.143 187.667 133.152L184.766 137.209C183.98 138.058 183.54 138.937 183.903 139.909ZM185.529 81.2943C185.529 81.2943 186.741 100.325 187.65 106.61C188.527 112.673 192.607 129.193 192.607 129.193C192.986 129.979 186.504 132.344 186.125 131.558C186.125 131.558 179.017 110.645 179.065 110.456C179.112 110.267 176.139 96.2055 176.139 96.2055C176.139 96.2055 173.869 107.459 173.449 111.258C172.881 116.399 172.553 131.926 172.553 131.926C172.553 132.961 165.672 132.961 165.672 131.926C165.672 131.926 163.585 115.192 163.623 109.55C163.67 102.46 167.692 81.483 167.692 81.483L185.529 81.2943Z" fill="#2B3445"/>
<path d="M152.097 65.0458L151.561 69.4276C151.561 69.4276 147.239 69.3363 146.704 67.5186C146.168 65.7049 148.017 64.1508 148.017 64.1508C148.017 64.1508 142.16 61.378 142.801 60.1324C143.43 58.9071 148.94 63.0457 149.135 63.1917C149.102 63.0821 148.603 61.5321 149.496 60.8464C150.421 60.1324 152.097 65.0458 152.097 65.0458Z" fill="#FCE9EC"/>
<path d="M149.683 69.3436C149.683 69.3436 156.909 74.6262 161.477 76.878C162.837 77.5474 163.96 77.9491 164.589 77.8639C166.163 77.6529 168.196 74.9102 169.758 72.3865C171.138 70.1509 172.148 68.0858 172.148 68.0858L165.802 54.9523C164.135 57.8208 163.023 62.9939 162.106 68.9135L152.541 64.1226C151.38 65.4171 150.467 67.2429 149.683 69.3436Z" fill="#94C9FE"/>
<path d="M161.477 76.878C162.837 77.5474 163.96 77.9491 164.589 77.8639C166.163 77.6529 168.196 74.9102 169.758 72.3865C169.665 71.8509 169.535 71.3195 169.393 70.8042C168.785 68.6132 167.924 66.4872 166.845 64.487C166.5 63.8499 165.892 62.2027 165.084 62.0363C164.204 61.8538 164.366 63.9392 164.297 64.5559C164.127 66.0206 163.96 67.4893 163.794 68.9541C163.563 70.9908 163.319 73.06 162.54 74.9589C162.264 75.6283 161.907 76.2816 161.477 76.878Z" fill="#4E97FD"/>
<path d="M165.758 87.2363C165.879 88.5468 181.898 87.7191 186.101 86.4898C186.754 86.2991 187.124 86.1003 187.103 85.8974C187.103 85.8974 186.84 69.5952 185.46 59.5411C184.957 55.8652 184.304 53.0251 183.46 52.1243C181.614 50.1524 176.814 50.4649 174.209 50.9599C171.75 51.4306 166.861 52.7816 165.697 55.147C163.77 59.0583 165.758 87.2363 165.758 87.2363Z" fill="#94C9FE"/>
<path d="M171.861 84.2571C171.886 84.3027 172.935 84.4603 174.505 83.9612C176.079 83.4622 176.384 82.8625 177.97 82.4121C179.707 81.9212 181.642 82.1647 183.204 83.0735C184.519 83.8403 185.553 85.0737 186.101 86.4897C186.754 86.299 187.124 86.1003 187.103 85.8974C187.103 85.8974 186.84 69.5951 185.46 59.5411C185.407 59.4722 185.351 59.4072 185.298 59.3382C184.567 58.4294 183.793 57.5328 182.867 56.8146C182.194 56.2871 180.835 55.3215 179.91 55.5852C178.554 55.9619 177.565 60.208 177.455 61.797C177.182 65.9059 178.817 67.3294 178.847 69.6803C178.871 71.8388 177.325 73.7133 175.597 75.0116C173.872 76.31 171.298 78.5892 169.752 80.0985C169.752 80.0985 171.81 84.1656 171.861 84.2571Z" fill="#4E97FD"/>
<path d="M182.607 51.4546C190.953 54.9502 192.747 72.0538 191.539 75.1891C190.484 77.9282 171.861 84.2571 171.861 84.2571L169.602 80.1926L183.283 71.6101C183.283 71.6101 179.899 61.9979 179.159 58.9164C178.558 56.4162 181.125 50.8339 182.607 51.4546Z" fill="#94C9FE"/>
<path d="M155.342 119.921C155.332 119.921 155.322 119.921 155.311 119.92L118.189 115.95C118.067 115.937 117.968 115.849 117.941 115.73L113.059 94.3729C113.039 94.2882 113.06 94.1993 113.114 94.1314C113.168 94.0635 113.25 94.024 113.337 94.024L158.307 94.0121C158.388 94.0121 158.466 94.0468 158.52 94.1077C158.574 94.1686 158.599 94.2497 158.59 94.3306L155.625 119.669C155.608 119.814 155.485 119.921 155.342 119.921ZM118.452 115.405L155.091 119.322L157.986 94.5829L113.695 94.5946L118.452 115.405Z" fill="#4E97FD"/>
<path d="M124.011 116.571C123.865 116.571 123.74 116.46 123.727 116.311L121.791 94.3318C121.777 94.1748 121.893 94.0363 122.05 94.0225C122.207 94.0091 122.345 94.1246 122.359 94.2816L124.296 116.261C124.309 116.418 124.193 116.556 124.036 116.57C124.028 116.571 124.019 116.571 124.011 116.571ZM131.153 117.335C130.995 117.335 130.868 117.207 130.868 117.05V94.2974C130.868 94.1398 130.995 94.0121 131.153 94.0121C131.311 94.0121 131.438 94.1398 131.438 94.2974V117.05C131.438 117.207 131.311 117.335 131.153 117.335ZM139.829 117.953C139.824 117.953 139.819 117.953 139.814 117.953C139.657 117.945 139.536 117.811 139.544 117.653L140.739 94.2828C140.748 94.1252 140.893 94.0057 141.039 94.0124C141.196 94.0205 141.318 94.1547 141.309 94.312L140.114 117.683C140.106 117.835 139.98 117.953 139.829 117.953ZM148.503 119.19C148.495 119.19 148.488 119.19 148.48 119.189C148.323 119.177 148.206 119.039 148.218 118.882L150.182 94.2748C150.195 94.1174 150.336 94.001 150.49 94.013C150.647 94.0255 150.764 94.163 150.752 94.3201L148.787 118.927C148.775 119.077 148.65 119.19 148.503 119.19Z" fill="#4E97FD"/>
<path d="M157.485 101.6H114.938C114.781 101.6 114.653 101.473 114.653 101.315C114.653 101.157 114.781 101.03 114.938 101.03H157.485C157.643 101.03 157.771 101.157 157.771 101.315C157.771 101.473 157.643 101.6 157.485 101.6ZM156.342 111.37C156.339 111.37 156.336 111.37 156.333 111.37L117.298 110.101C117.14 110.095 117.017 109.964 117.022 109.806C117.027 109.652 117.153 109.53 117.307 109.53C117.31 109.53 117.313 109.53 117.316 109.53L156.351 110.8C156.509 110.805 156.632 110.937 156.628 111.094C156.622 111.249 156.496 111.37 156.342 111.37ZM158.416 130.634H128.698C128.541 130.634 128.413 130.506 128.413 130.348C128.413 130.191 128.541 130.063 128.698 130.063H158.416C159.496 130.063 160.375 129.184 160.375 128.104V124.545C160.375 123.944 160.091 123.365 159.616 122.996L155.177 119.869C155.048 119.779 155.018 119.601 155.108 119.472C155.199 119.343 155.377 119.312 155.506 119.403L159.955 122.538C160.579 123.021 160.946 123.768 160.946 124.545V128.104C160.946 129.499 159.811 130.634 158.416 130.634ZM157.938 97.734C157.925 97.734 157.913 97.7331 157.9 97.7315C157.744 97.7107 157.634 97.5672 157.655 97.411L158.461 91.3397C158.472 91.2565 158.52 91.1823 158.59 91.137L165.353 86.8077C165.486 86.7223 165.662 86.7616 165.747 86.8941C165.832 87.0269 165.793 87.2033 165.661 87.2882L159.009 91.5462L158.22 97.4862C158.201 97.6297 158.079 97.734 157.938 97.734Z" fill="#4E97FD"/>
<path d="M157.152 133.19L152.853 133.335L150.863 130.348H154.761L157.152 133.19Z" fill="#4E97FD"/>
<path d="M154.93 138.395C156.63 138.395 158.008 137.018 158.008 135.318C158.008 133.618 156.63 132.24 154.93 132.24C153.231 132.24 151.853 133.618 151.853 135.318C151.853 137.018 153.231 138.395 154.93 138.395Z" fill="#4E97FD"/>
<path d="M136.323 133.19L132.025 133.335L130.034 130.348H133.933L136.323 133.19Z" fill="#4E97FD"/>
<path d="M134.102 138.395C135.801 138.395 137.179 137.018 137.179 135.318C137.179 133.618 135.801 132.24 134.102 132.24C132.402 132.24 131.024 133.618 131.024 135.318C131.024 137.018 132.402 138.395 134.102 138.395Z" fill="#4E97FD"/>
<path d="M173.625 37.6457C173.625 37.6457 172.85 41.9566 168.552 40.9956C164.255 40.0377 165.352 35.1883 165.352 35.1883L170.762 34.9574L173.625 37.6457Z" fill="#2B3445"/>
<path d="M180.042 36.0873C180.042 36.0873 181.504 43.1049 176.163 48.3051C171.21 53.1281 171.322 41.5231 170.939 41.7128L174.77 36.6262L180.042 36.0873Z" fill="#2B3445"/>
<path d="M176.987 50.6628C176.987 50.6628 174.491 54.4175 171.95 54.5589C169.409 54.7003 171.855 51.1631 171.855 51.1631C171.855 51.1631 172.132 50.6051 172.274 49.8341C172.34 49.4901 172.378 49.1011 172.35 48.7014C172.351 48.6926 172.349 48.6853 172.346 48.6777C172.326 48.3879 172.272 48.0934 172.165 47.8044C172.918 47.4426 173.575 46.8841 174.113 46.308C175.114 45.2395 175.701 44.1243 175.701 44.1243C175.701 44.1243 175.999 48.7119 176.987 50.6628Z" fill="#FCE9EC"/>
<path d="M174.258 47.1353C173.95 48.2636 172.81 49.363 172.274 49.8341C172.34 49.4901 172.378 49.1011 172.35 48.7014C172.351 48.6927 172.349 48.6854 172.346 48.6777C173.077 48.2738 173.72 47.7116 174.258 47.1353Z" fill="#F4BEBE"/>
<path d="M178.362 41.8372C178.906 43.4315 176.058 44.6609 176.058 44.6609C176.058 44.6609 174.479 47.6595 172.051 48.8317C171.004 49.3377 169.801 49.5066 168.497 48.9445C165.521 47.6643 166.142 40.3163 166.497 37.4865C166.583 36.7996 166.656 36.3778 166.656 36.3778L177.299 35.7542L176.085 41.3872C176.085 41.3872 177.817 40.2428 178.362 41.8372Z" fill="#FCE9EC"/>
<path d="M171.77 41.8736C171.862 41.554 171.752 41.2409 171.522 41.1742C171.293 41.1075 171.032 41.3125 170.939 41.632C170.846 41.9516 170.956 42.2648 171.186 42.3315C171.415 42.3982 171.677 42.1932 171.77 41.8736Z" fill="#2B3445"/>
<path d="M168.422 41.3908C168.515 41.0712 168.404 40.7581 168.175 40.6913C167.945 40.6246 167.684 40.8297 167.591 41.1492C167.498 41.4688 167.609 41.782 167.838 41.8487C168.068 41.9154 168.329 41.7104 168.422 41.3908Z" fill="#2B3445"/>
<path d="M167.824 40.4012C167.899 40.3165 167.991 40.2461 168.087 40.1787C168.307 40.0448 168.609 40.104 168.752 40.3516C168.802 40.4584 168.838 40.5682 168.857 40.6802C168.768 40.6037 168.703 40.5199 168.638 40.4425C168.499 40.3191 168.376 40.2582 168.137 40.3154C168.041 40.3509 167.941 40.3832 167.824 40.4012ZM171.099 40.7835C171.174 40.6988 171.266 40.6284 171.361 40.561C171.582 40.4269 171.884 40.4868 172.027 40.7339C172.077 40.8407 172.113 40.9505 172.132 41.0626C172.042 40.986 171.978 40.9022 171.912 40.8248C171.839 40.759 171.764 40.7059 171.684 40.6892C171.603 40.668 171.509 40.6745 171.412 40.6977C171.315 40.7332 171.215 40.7655 171.099 40.7835ZM169.632 41.1963C169.615 41.6053 169.522 42.7273 169.349 43.1439C169.281 43.3016 169.17 43.4553 169.043 43.5652C168.715 43.8539 168.523 44.0604 169.042 44.7335C168.916 44.6289 168.797 44.5145 168.704 44.3705C168.463 43.9627 168.628 43.7358 168.919 43.4348C169.034 43.3271 169.115 43.21 169.174 43.0683C169.29 42.8046 169.435 41.8754 169.632 41.1963Z" fill="#2B3445"/>
<path d="M170.247 46.2043C170.246 46.2144 170.247 46.224 170.246 46.2339C170.154 46.8688 169.565 47.3092 168.93 47.2177C168.296 47.1262 167.855 46.5374 167.947 45.9024C167.948 45.8926 167.952 45.8837 167.954 45.8739C168.687 46.2213 169.451 46.3353 170.247 46.2043Z" fill="white"/>
<path d="M178.362 41.8372C177.817 40.2428 176.085 41.3872 176.085 41.3872L175.497 41.9707L174.649 39.2466C174.649 39.2466 169.153 39.5791 166.095 38.5438C164.99 38.1736 164.586 36.5648 164.44 35.7587C163.893 32.728 168.933 31.8045 168.933 31.8045C168.501 32.8766 169.484 33.4181 169.484 33.4181C171.299 31.0467 173.569 31.1995 173.569 31.1995C173.569 31.1995 172.812 33.0542 173.955 33.6931C175.101 34.3309 177.842 32.689 180.158 34.3713C183.363 36.6987 178.362 41.8372 178.362 41.8372Z" fill="#2B3445"/>
<path d="M171.86 84.2588L169.604 86.1373C169.604 86.1373 165.526 90.0607 163.624 86.8799C161.717 83.703 168.302 82.0922 168.302 82.0922C168.302 82.0922 167.409 82.015 166.902 81.2929C166.391 80.5748 169.754 80.1001 169.754 80.1001L171.86 84.2588Z" fill="#FCE9EC"/>
<path d="M125.564 66.1664L125.894 68.2159C125.932 68.4844 125.702 68.7223 125.433 68.6762L123.038 68.2925C121.665 69.0831 120.068 69.5359 118.372 69.5359C113.198 69.5359 109 65.345 109 60.1717C109 54.9985 113.198 50.8 118.372 50.8C123.545 50.8 127.736 54.9985 127.736 60.1717C127.736 62.4513 126.915 64.5468 125.564 66.1664Z" fill="url(#paint15_linear_6_6380)"/>
<path d="M116.034 63.6025L114.424 61.9927C114.001 61.5695 114.001 60.8836 114.424 60.4604C114.847 60.0374 115.533 60.0374 115.956 60.4604L116.8 61.3042L120.78 57.3238C121.203 56.9008 121.889 56.9008 122.312 57.3238C122.735 57.747 122.735 58.4329 122.312 58.8561L117.566 63.6025C117.142 64.0256 116.457 64.0255 116.034 63.6025Z" fill="white"/>
<path d="M128.775 32.5066L128.445 34.5561C128.407 34.8246 128.637 35.0626 128.906 35.0165L131.3 34.6328C132.674 35.4234 134.271 35.8761 135.967 35.8761C141.14 35.8761 145.339 31.6853 145.339 26.512C145.339 21.3388 141.14 17.1403 135.967 17.1403C130.794 17.1403 126.603 21.3388 126.603 26.512C126.603 28.7916 127.424 30.887 128.775 32.5066Z" fill="url(#paint16_linear_6_6380)"/>
<path d="M135.736 31.1973C135.736 31.6759 135.349 32.0627 134.87 32.0627C134.392 32.0627 134.005 31.6759 134.005 31.1973C134.005 30.7208 134.392 30.3322 134.87 30.3322C135.349 30.3322 135.736 30.7208 135.736 31.1973ZM139.24 28.351H133.9L134.062 29.0209H139.646C139.813 29.0209 139.947 29.1549 139.947 29.3214C139.947 29.4861 139.813 29.622 139.646 29.622H133.827C133.687 29.622 133.569 29.5263 133.536 29.3923C133.102 27.5991 133.946 31.0873 131.842 22.4015H130.351C130.184 22.4015 130.05 22.2675 130.05 22.1029C130.05 21.9364 130.184 21.8024 130.351 21.8024H132.077C132.217 21.8024 132.336 21.8981 132.368 22.0321L132.734 23.5367H140.802C141.074 23.5367 141.262 23.8104 141.164 24.0631L139.602 28.1021C139.545 28.2514 139.401 28.351 139.24 28.351ZM139.286 31.1973C139.286 31.6759 138.898 32.0627 138.421 32.0627C137.943 32.0627 137.556 31.6759 137.556 31.1973C137.556 30.7208 137.943 30.3322 138.421 30.3322C138.898 30.3322 139.286 30.7208 139.286 31.1973Z" fill="white"/>
<path d="M137.905 25.3106V26.2964H137.004V27.1973H136.018V26.2964H135.117V25.3106H136.018V24.4093H137.004V25.3106H137.905Z" fill="url(#paint17_linear_6_6380)"/>
</g>
</g>
</g>
<defs>
<linearGradient id="paint0_linear_6_6380" x1="95.9489" y1="-12.2445" x2="95.9489" y2="71.6809" gradientUnits="userSpaceOnUse">
<stop stop-color="#F5F8FF" stop-opacity="0"/>
<stop offset="1" stop-color="#E1E9FE"/>
</linearGradient>
<linearGradient id="paint1_linear_6_6380" x1="96.7624" y1="174.812" x2="96.7624" y2="127.312" gradientUnits="userSpaceOnUse">
<stop stop-color="#F5F8FF" stop-opacity="0"/>
<stop offset="1" stop-color="#E1E9FE"/>
</linearGradient>
<linearGradient id="paint2_linear_6_6380" x1="179.352" y1="40.9565" x2="179.352" y2="122.19" gradientUnits="userSpaceOnUse">
<stop stop-color="#CEDCF9" stop-opacity="0"/>
<stop offset="1" stop-color="#C3D2FF"/>
</linearGradient>
<linearGradient id="paint3_linear_6_6380" x1="67.934" y1="29.8251" x2="67.934" y2="62.6207" gradientUnits="userSpaceOnUse">
<stop stop-color="#F5F8FF" stop-opacity="0"/>
<stop offset="1" stop-color="#E1E9FE"/>
</linearGradient>
<linearGradient id="paint4_linear_6_6380" x1="73.8487" y1="31.0723" x2="64.8593" y2="40.0617" gradientUnits="userSpaceOnUse">
<stop stop-color="#D1DEFF"/>
<stop offset="1" stop-color="#B2C7FF"/>
</linearGradient>
<linearGradient id="paint5_linear_6_6380" x1="79.0089" y1="36.7198" x2="73.9762" y2="38.1035" gradientUnits="userSpaceOnUse">
<stop stop-color="#D1DEFF"/>
<stop offset="1" stop-color="#B2C7FF"/>
</linearGradient>
<linearGradient id="paint6_linear_6_6380" x1="97.3" y1="29.8251" x2="97.3" y2="62.6207" gradientUnits="userSpaceOnUse">
<stop stop-color="#F5F8FF" stop-opacity="0"/>
<stop offset="1" stop-color="#E1E9FE"/>
</linearGradient>
<linearGradient id="paint7_linear_6_6380" x1="103.215" y1="31.0723" x2="94.2251" y2="40.0617" gradientUnits="userSpaceOnUse">
<stop stop-color="#D1DEFF"/>
<stop offset="1" stop-color="#B2C7FF"/>
</linearGradient>
<linearGradient id="paint8_linear_6_6380" x1="108.375" y1="36.7198" x2="103.342" y2="38.1035" gradientUnits="userSpaceOnUse">
<stop stop-color="#D1DEFF"/>
<stop offset="1" stop-color="#B2C7FF"/>
</linearGradient>
<linearGradient id="paint9_linear_6_6380" x1="67.934" y1="57.8347" x2="67.934" y2="90.6304" gradientUnits="userSpaceOnUse">
<stop stop-color="#F5F8FF" stop-opacity="0"/>
<stop offset="1" stop-color="#E1E9FE"/>
</linearGradient>
<linearGradient id="paint10_linear_6_6380" x1="73.8487" y1="59.0814" x2="64.8593" y2="68.0712" gradientUnits="userSpaceOnUse">
<stop stop-color="#D1DEFF"/>
<stop offset="1" stop-color="#B2C7FF"/>
</linearGradient>
<linearGradient id="paint11_linear_6_6380" x1="79.0089" y1="64.7293" x2="73.9762" y2="66.113" gradientUnits="userSpaceOnUse">
<stop stop-color="#D1DEFF"/>
<stop offset="1" stop-color="#B2C7FF"/>
</linearGradient>
<linearGradient id="paint12_linear_6_6380" x1="97.3" y1="57.8347" x2="97.3" y2="90.6304" gradientUnits="userSpaceOnUse">
<stop stop-color="#F5F8FF" stop-opacity="0"/>
<stop offset="1" stop-color="#E1E9FE"/>
</linearGradient>
<linearGradient id="paint13_linear_6_6380" x1="103.215" y1="59.0814" x2="94.2252" y2="68.0712" gradientUnits="userSpaceOnUse">
<stop stop-color="#D1DEFF"/>
<stop offset="1" stop-color="#B2C7FF"/>
</linearGradient>
<linearGradient id="paint14_linear_6_6380" x1="108.375" y1="64.7293" x2="103.342" y2="66.113" gradientUnits="userSpaceOnUse">
<stop stop-color="#D1DEFF"/>
<stop offset="1" stop-color="#B2C7FF"/>
</linearGradient>
<linearGradient id="paint15_linear_6_6380" x1="109" y1="60.1678" x2="127.736" y2="60.1678" gradientUnits="userSpaceOnUse">
<stop stop-color="#909EFF"/>
<stop offset="1" stop-color="#6977E3"/>
</linearGradient>
<linearGradient id="paint16_linear_6_6380" x1="126.603" y1="26.5084" x2="145.339" y2="26.5084" gradientUnits="userSpaceOnUse">
<stop stop-color="#909EFF"/>
<stop offset="1" stop-color="#6977E3"/>
</linearGradient>
<linearGradient id="paint17_linear_6_6380" x1="135.117" y1="25.8033" x2="137.905" y2="25.8033" gradientUnits="userSpaceOnUse">
<stop stop-color="#909EFF"/>
<stop offset="1" stop-color="#6977E3"/>
</linearGradient>
<clipPath id="clip0_6_6380">
<rect width="195" height="171" fill="white" transform="translate(0 0.800049)"/>
</clipPath>
<clipPath id="clip1_6_6380">
<rect width="195" height="171" fill="white" transform="translate(0 0.800049)"/>
</clipPath>
<clipPath id="clip2_6_6380">
<rect width="195" height="171" fill="white" transform="translate(0 0.800049)"/>
</clipPath>
</defs>
</svg>
